<?xml version="1.0" standalone="no"?>
<!DOCTYPE svg PUBLIC "-//W3C//DTD SVG 20010904//EN"
 "http://www.w3.org/TR/2001/REC-SVG-20010904/DTD/svg10.dtd">
<svg version="1.0" xmlns="http://www.w3.org/2000/svg"
 width="332.000000pt" height="332.000000pt" viewBox="0 0 332.000000 332.000000"
 preserveAspectRatio="xMidYMid meet">
<metadata>
Created by potrace 1.11, written by Peter Selinger 2001-2013
</metadata>
<g transform="translate(0.000000,332.000000) scale(0.100000,-0.100000)"
fill="#000000" stroke="none">
<path d="M1647 3219 c-14 -32 -31 -69 -153 -326 -50 -107 -51 -113 -31 -114
99 -3 409 0 413 4 4 4 -200 454 -211 466 -2 2 -10 -12 -18 -30z"/>
<path d="M540 2773 c0 -5 39 -115 86 -245 l87 -237 154 154 c139 138 166 175
131 175 -6 0 -110 36 -230 80 -234 86 -228 84 -228 73z"/>
<path d="M2680 2744 c-232 -85 -288 -105 -333 -121 l-48 -16 153 -154 c84 -84
155 -153 158 -153 7 0 17 26 100 255 40 110 75 206 78 213 6 17 0 15 -108 -24z"/>
<path d="M1597 2684 c-1 -1 -29 -4 -63 -8 -111 -11 -271 -64 -374 -123 -190
-109 -358 -300 -440 -501 -53 -131 -72 -229 -74 -382 -6 -455 304 -867 744
-989 177 -50 407 -46 579 9 474 151 769 616 707 1113 -18 146 -97 342 -186
462 -194 263 -482 412 -813 419 -42 1 -78 1 -80 0z"/>
<path d="M430 1827 c-47 -23 -119 -57 -160 -76 -41 -19 -104 -48 -139 -64
l-64 -31 84 -41 c131 -63 374 -175 382 -175 4 0 7 97 7 215 0 166 -3 215 -12
214 -7 0 -51 -19 -98 -42z"/>
<path d="M2787 1683 c1 -104 2 -203 2 -222 1 -25 4 -31 14 -24 6 6 112 57 235
114 l223 103 -43 21 c-43 20 -163 77 -330 154 -48 23 -91 41 -95 41 -5 0 -7
-84 -6 -187z"/>
<path d="M705 998 c-3 -7 -39 -107 -81 -222 -41 -116 -80 -218 -85 -228 -6
-12 -6 -18 0 -18 5 0 108 36 229 80 121 44 224 80 230 80 34 0 8 35 -126 170
-82 83 -152 150 -156 150 -3 0 -9 -6 -11 -12z"/>
<path d="M2455 860 c-115 -116 -147 -153 -136 -159 23 -15 463 -172 467 -168
3 2 -10 42 -27 88 -58 157 -68 184 -105 287 -20 56 -40 102 -43 102 -4 0 -74
-68 -156 -150z"/>
<path d="M1456 530 c-10 -4 -4 -24 23 -80 20 -41 67 -142 105 -225 39 -82 73
-153 76 -158 3 -4 17 16 30 45 13 29 47 103 76 163 97 207 115 248 110 252 -6
7 -404 9 -420 3z"/>
</g>
</svg>
